<svg id="Layer_1" data-name="Layer 1" xmlns="http://www.w3.org/2000/svg" xmlns:xlink="http://www.w3.org/1999/xlink" viewBox="0 0 260 260"><defs><style>.cls-1{fill:url(#linear-gradient);}.cls-2{fill:url(#linear-gradient-2);}.cls-3{fill:url(#linear-gradient-3);}.cls-4{fill:url(#linear-gradient-4);}.cls-5{fill:url(#linear-gradient-5);}.cls-6{fill:url(#linear-gradient-6);}.cls-7{fill:url(#linear-gradient-7);}</style><linearGradient id="linear-gradient" x1="44.33" y1="240.72" x2="-213.78" y2="240.72" gradientTransform="translate(63.99 -109.85) rotate(-30)" gradientUnits="userSpaceOnUse"><stop offset="0" stop-color="#585858"/><stop offset="0.1" stop-color="#484848"/><stop offset="0.35" stop-color="#292929"/><stop offset="0.58" stop-color="#121212"/><stop offset="0.8" stop-color="#050505"/><stop offset="1"/></linearGradient><linearGradient id="linear-gradient-2" x1="105.6" y1="176.3" x2="105.6" y2="203.43" gradientTransform="translate(109.08 -27.36) rotate(30)" gradientUnits="userSpaceOnUse"><stop offset="0" stop-color="#c7c7c7"/><stop offset="0.16" stop-color="#d6d6d6"/><stop offset="0.46" stop-color="#ededed"/><stop offset="0.75" stop-color="#fafafa"/><stop offset="1" stop-color="#fff"/></linearGradient><linearGradient id="linear-gradient-3" x1="94.7" y1="169.1" x2="94.7" y2="131.66" gradientTransform="translate(87.88 -27.21) rotate(30)" gradientUnits="userSpaceOnUse"><stop offset="0" stop-color="#fdc648"/><stop offset="0.27" stop-color="#eab429"/><stop offset="0.53" stop-color="#dca712"/><stop offset="0.78" stop-color="#d4a005"/><stop offset="1" stop-color="#d19d00"/></linearGradient><linearGradient id="linear-gradient-4" x1="189.77" y1="175.08" x2="189.77" y2="107.46" gradientTransform="translate(96.06 -75.96) rotate(30)" xlink:href="#linear-gradient-3"/><linearGradient id="linear-gradient-5" x1="154.4" y1="56.57" x2="154.4" y2="83.7" gradientTransform="translate(55.75 -67.8) rotate(30)" xlink:href="#linear-gradient-2"/><linearGradient id="linear-gradient-6" x1="158.49" y1="99.99" x2="158.49" y2="127.12" gradientTransform="translate(78.01 -64.03) rotate(30)" xlink:href="#linear-gradient-2"/><linearGradient id="linear-gradient-7" x1="70.23" y1="152.54" x2="70.23" y2="84.92" gradientTransform="translate(68.77 -19.21) rotate(30)" xlink:href="#linear-gradient-3"/></defs><path class="cls-1" d="M146.74,179.09a13,13,0,0,1-11.23-6.49,13,13,0,0,1,4.74-17.71L226,105.4v-17A23.92,23.92,0,0,0,214,67.7L142,26.1a23.92,23.92,0,0,0-23.91,0L46,67.7A23.9,23.9,0,0,0,34,88.41v36.24l72.73-42a13,13,0,0,1,13,22.46L34,154.6v17A23.9,23.9,0,0,0,46,192.3l72,41.6a23.92,23.92,0,0,0,23.91,0L214,192.3A23.92,23.92,0,0,0,226,171.59V135.35l-72.73,42A13.05,13.05,0,0,1,146.74,179.09Zm-68.92-6a13,13,0,0,1-6.49-24.19l33.78-19.51a13,13,0,0,1,13,22.46l-33.79,19.5A12.94,12.94,0,0,1,77.82,173.1Zm48.27,15.52a12.89,12.89,0,0,1-6,7.88l-15.94,9.2a13,13,0,0,1-13-22.46l15.93-9.2a13,13,0,0,1,17.71,4.75A12.81,12.81,0,0,1,126.09,188.62Zm51.59-86.15a13,13,0,0,1-4.75,17.72L157,129.39a13,13,0,0,1-19-14.59,12.89,12.89,0,0,1,6-7.87L160,97.73a13,13,0,0,1,17.71,4.74Zm-37.74-39,15.94-9.2a13,13,0,1,1,13,22.46L152.91,86a13,13,0,0,1-13-22.46Z"/><rect class="cls-2" x="87.44" y="180.9" width="36.33" height="17.93" rx="8.97" transform="translate(-80.78 78.24) rotate(-30)"/><rect class="cls-3" x="66.23" y="141.41" width="56.94" height="17.93" rx="8.97" transform="translate(-62.5 67.5) rotate(-30)"/><rect class="cls-4" x="131.12" y="132.3" width="117.31" height="17.93" rx="8.97" transform="translate(-45.21 113.81) rotate(-30)"/><rect class="cls-5" x="136.23" y="61.17" width="36.33" height="17.93" rx="8.97" transform="translate(-14.38 86.6) rotate(-30)"/><rect class="cls-6" x="140.32" y="104.59" width="36.33" height="17.93" rx="8.97" transform="translate(-35.54 94.46) rotate(-30)"/><rect class="cls-7" x="11.58" y="109.76" width="117.31" height="17.93" rx="8.97" transform="translate(-49.96 51.02) rotate(-30)"/></svg>